<svg width="100" height="100" viewBox="0 0 100 100" fill="none" xmlns="http://www.w3.org/2000/svg">
<path d="M98.1159 45.5461L54.4543 1.88781C53.8562 1.28933 53.146 0.814561 52.3644 0.490642C51.5827 0.166723 50.7449 0 49.8988 0C49.0527 0 48.2149 0.166723 47.4332 0.490642C46.6515 0.814561 45.9414 1.28933 45.3433 1.88781L36.2801 10.9553L47.7788 22.454C49.1307 21.9949 50.5841 21.9232 51.9746 22.2471C53.3651 22.571 54.6372 23.2775 55.6471 24.2867C56.6625 25.3032 57.3714 26.585 57.6926 27.9855C58.0138 29.386 57.9344 30.8486 57.4634 32.2061L68.5496 43.289C69.9074 42.8174 71.3707 42.738 72.7715 43.0598C74.1724 43.3817 75.4543 44.0917 76.4701 45.1086C77.1817 45.8201 77.7461 46.6647 78.1313 47.5944C78.5164 48.524 78.7146 49.5204 78.7146 50.5266C78.7146 51.5328 78.5164 52.5292 78.1313 53.4589C77.7461 54.3885 77.1817 55.2331 76.4701 55.9446C75.0315 57.3817 73.0812 58.1889 71.0478 58.1889C69.0143 58.1889 67.0641 57.3817 65.6254 55.9446C64.5567 54.8741 63.8286 53.5115 63.5327 52.0281C63.2368 50.5447 63.3864 49.007 63.9626 47.6084L53.624 37.2731V64.4767C54.7152 65.0157 55.6623 65.807 56.3868 66.7849C57.1113 67.7629 57.5925 68.8994 57.7903 70.1003C57.9882 71.3012 57.897 72.532 57.5245 73.6907C57.152 74.8494 56.5088 75.9027 55.6481 76.7633C54.9367 77.4749 54.092 78.0393 53.1624 78.4244C52.2328 78.8096 51.2364 79.0078 50.2302 79.0078C49.2239 79.0078 48.2275 78.8096 47.2979 78.4244C46.3683 78.0393 45.5236 77.4749 44.8122 76.7633C44.1004 76.0518 43.5358 75.2071 43.1506 74.2774C42.7654 73.3476 42.5672 72.3511 42.5672 71.3448C42.5672 70.3384 42.7654 69.3419 43.1506 68.4122C43.5358 67.4824 44.1004 66.6377 44.8122 65.9262C45.5292 65.2078 46.3814 64.6386 47.3196 64.2514V36.7975C46.3852 36.4126 45.5361 35.8469 44.821 35.1329C44.1059 34.4189 43.5389 33.5706 43.1526 32.6369C42.7663 31.7031 42.5683 30.7022 42.57 29.6916C42.5717 28.6811 42.773 27.6809 43.1624 26.7484L31.8247 15.4085L1.88412 45.3415C0.67761 46.5504 0 48.1886 0 49.8965C0 51.6044 0.67761 53.2426 1.88412 54.4515L45.5479 98.1152C46.7567 99.3214 48.3946 99.9988 50.1023 99.9988C51.81 99.9988 53.4479 99.3214 54.6567 98.1152L98.1159 54.6561C99.3224 53.4472 100 51.809 100 50.1011C100 48.3932 99.3224 46.755 98.1159 45.5461" fill="#F03C2E"/>
</svg>
